<?xml version="1.0" encoding="UTF-8"?><svg id="uuid-b43f8201-e211-4e67-a84d-6208551c8e1b" xmlns="http://www.w3.org/2000/svg" xmlns:xlink="http://www.w3.org/1999/xlink" viewBox="0 0 795 178"><defs><clipPath id="uuid-591472f4-d7f0-48bb-8b12-fef328508f07"><rect x="698" y="62" width="55" height="55" fill="none" stroke-width="0"/></clipPath></defs><rect x="2" y="2" width="791" height="174" rx="26" ry="26" fill="#fff" stroke="#000" stroke-width="4"/><path d="m212.2,70v-29.09h18.04v3.78h-13.65v8.86h12.36v3.76h-12.36v12.68h-4.39Zm23.44,0v-29.09h18.24v3.78h-13.85v8.86h12.9v3.76h-12.9v8.91h14.02v3.78h-18.41Zm26.56,0h-4.66l10.47-29.09h5.07l10.47,29.09h-4.66l-8.23-23.81h-.23l-8.24,23.81Zm.78-11.39h15.11v3.69h-15.11v-3.69Zm19.9-13.92v-3.78h22.51v3.78h-9.08v25.31h-4.38v-25.31h-9.06Zm46.2-3.78h4.4v19.13c0,2.04-.48,3.84-1.43,5.41-.96,1.56-2.3,2.79-4.03,3.69-1.73.89-3.76,1.34-6.09,1.34s-4.35-.45-6.08-1.34c-1.73-.9-3.08-2.13-4.03-3.69-.96-1.57-1.44-3.38-1.44-5.41v-19.13h4.39v18.78c0,1.32.29,2.49.87,3.51.59,1.02,1.42,1.83,2.49,2.41,1.07.58,2.34.87,3.81.87s2.75-.29,3.82-.87c1.08-.59,1.9-1.39,2.47-2.41.58-1.02.87-2.19.87-3.51v-18.78Zm10.79,29.09v-29.09h10.37c2.25,0,4.12.39,5.61,1.16,1.5.78,2.61,1.85,3.35,3.22.74,1.36,1.11,2.94,1.11,4.73s-.37,3.35-1.12,4.7c-.74,1.34-1.86,2.39-3.35,3.14-1.49.75-3.36,1.12-5.61,1.12h-7.86v-3.78h7.46c1.42,0,2.58-.2,3.47-.61.9-.41,1.56-1,1.97-1.78.42-.78.62-1.71.62-2.8s-.21-2.05-.64-2.86c-.42-.8-1.07-1.42-1.98-1.85-.89-.44-2.06-.65-3.51-.65h-5.51v25.33h-4.39Zm14.36-13.12l7.19,13.12h-5l-7.05-13.12h4.86Zm11.42,13.12v-29.09h18.24v3.78h-13.85v8.86h12.9v3.76h-12.9v8.91h14.02v3.78h-18.41Zm33.52,0h-9.42v-29.09h9.72c2.85,0,5.3.58,7.34,1.75,2.04,1.16,3.61,2.82,4.7,4.99,1.1,2.16,1.65,4.75,1.65,7.77s-.55,5.63-1.66,7.81c-1.1,2.18-2.69,3.85-4.77,5.03-2.08,1.16-4.6,1.75-7.56,1.75Zm-5.03-3.84h4.79c2.22,0,4.06-.42,5.53-1.25,1.47-.84,2.57-2.06,3.29-3.65.73-1.6,1.09-3.55,1.09-5.85s-.36-4.22-1.09-5.81c-.72-1.59-1.79-2.8-3.22-3.62-1.43-.82-3.21-1.24-5.33-1.24h-5.06v21.42Zm60.33-10.71c0,3.11-.57,5.78-1.7,8.01-1.14,2.23-2.7,3.94-4.67,5.14-1.97,1.19-4.21,1.79-6.72,1.79s-4.77-.6-6.75-1.79c-1.97-1.2-3.52-2.92-4.66-5.16-1.14-2.23-1.7-4.9-1.7-8s.57-5.77,1.7-8c1.14-2.23,2.69-3.95,4.66-5.14,1.98-1.2,4.23-1.8,6.75-1.8s4.75.6,6.72,1.8c1.98,1.19,3.54,2.91,4.67,5.14,1.14,2.23,1.7,4.89,1.7,8Zm-4.35,0c0-2.37-.38-4.36-1.15-5.98-.76-1.63-1.8-2.86-3.12-3.69-1.32-.84-2.81-1.26-4.47-1.26s-3.17.42-4.49,1.26c-1.32.83-2.36,2.06-3.12,3.69-.76,1.62-1.14,3.61-1.14,5.98s.38,4.37,1.14,5.99c.77,1.62,1.81,2.85,3.12,3.69,1.32.83,2.81,1.25,4.49,1.25s3.16-.42,4.47-1.25c1.33-.84,2.37-2.07,3.12-3.69.77-1.63,1.15-3.63,1.15-5.99Zm33.3-14.55v29.09h-4.04l-14.79-21.34h-.27v21.34h-4.39v-29.09h4.06l14.8,21.36h.27v-21.36h4.35Z" stroke-width="0"/><g clip-path="url(#uuid-591472f4-d7f0-48bb-8b12-fef328508f07)"><path d="m728.16,64.85l6.2,12.57c.43.87,1.27,1.48,2.23,1.62l13.87,2.02c2.43.35,3.4,3.34,1.64,5.05l-10.04,9.78c-.7.68-1.02,1.66-.85,2.62l2.37,13.82c.41,2.42-2.12,4.26-4.3,3.12l-12.41-6.52c-.86-.45-1.89-.45-2.76,0l-12.41,6.52c-2.17,1.14-4.71-.7-4.3-3.12l2.37-13.82c.17-.96-.15-1.94-.85-2.62l-10.04-9.78c-1.76-1.71-.79-4.7,1.64-5.05l13.87-2.02c.96-.14,1.8-.75,2.23-1.62l6.2-12.57c1.09-2.2,4.22-2.2,5.31,0Z" stroke-width="0"/></g><path d="m231.67,109.4v6.77h-19.92v-6.77h19.92Zm-14.94-8.14h8.67v30.32c0,1.05.22,1.8.67,2.24.45.44,1.23.66,2.34.66.43,0,.96-.02,1.6-.06.63-.04,1.13-.07,1.48-.09l.56,6.68c-.72.14-1.56.23-2.5.28-.95.05-1.88.07-2.8.07-3.36,0-5.87-.72-7.53-2.17-1.66-1.45-2.49-3.61-2.49-6.5v-31.44Z" stroke-width="0"/><path d="m245.39,123.17v17.99h-8.7v-43.65h8.61v20.01h-1.2c.92-2.73,2.27-4.86,4.06-6.37,1.79-1.51,4.08-2.27,6.87-2.27,2.23,0,4.17.48,5.83,1.45,1.66.97,2.94,2.36,3.85,4.19s1.36,4.04,1.36,6.64v20.01h-8.7v-18.46c0-2.05-.51-3.63-1.52-4.75-1.02-1.11-2.44-1.67-4.28-1.67-1.21,0-2.28.25-3.21.76-.93.51-1.66,1.27-2.18,2.3s-.79,2.3-.79,3.82Z" stroke-width="0"/><path d="m287.22,141.83c-3.22,0-6.02-.69-8.38-2.07-2.36-1.38-4.19-3.3-5.48-5.77s-1.93-5.35-1.93-8.63.65-6.1,1.95-8.58c1.3-2.48,3.11-4.42,5.42-5.83s5-2.11,8.07-2.11c2.21,0,4.24.37,6.11,1.1,1.86.73,3.48,1.8,4.85,3.21,1.37,1.41,2.43,3.12,3.19,5.13s1.14,4.3,1.14,6.86v2.37h-27.42v-5.51h23.2l-3.98,1.38c0-1.62-.27-3.03-.82-4.22-.55-1.19-1.34-2.11-2.37-2.75-1.04-.64-2.3-.97-3.78-.97s-2.72.33-3.76.98c-1.04.65-1.85,1.56-2.42,2.72-.57,1.16-.85,2.51-.85,4.06v3.84c0,1.72.3,3.2.91,4.44.6,1.24,1.47,2.19,2.59,2.84,1.12.65,2.45.98,3.97.98,1.09,0,2.07-.16,2.93-.47.86-.31,1.59-.76,2.18-1.35.6-.59,1.03-1.28,1.3-2.08l7.91.64c-.45,1.93-1.34,3.64-2.68,5.11-1.34,1.47-3.02,2.62-5.04,3.44s-4.29,1.23-6.81,1.23Z" stroke-width="0"/><path d="m313.41,141.16l-9.61-31.76h9.14l2.84,11.4c.53,2.19,1.06,4.51,1.6,6.96.54,2.45,1.06,5,1.57,7.66h-1.08c.53-2.62,1.08-5.16,1.67-7.62s1.16-4.79,1.73-7l2.99-11.4h7.91l2.93,11.4c.55,2.21,1.11,4.54,1.7,6.99s1.15,5,1.7,7.63h-1.11c.51-2.64,1.03-5.18,1.55-7.62s1.04-4.78,1.55-7l2.84-11.4h9.26l-9.64,31.76h-8.94l-3.6-12.45c-.35-1.23-.69-2.53-1.03-3.91-.33-1.38-.66-2.77-1-4.19-.33-1.42-.66-2.78-1-4.09h1.58c-.33,1.31-.66,2.67-1,4.09-.33,1.42-.66,2.82-1,4.2-.33,1.39-.67,2.69-1.03,3.9l-3.66,12.45h-8.88Z" stroke-width="0"/><path d="m360.87,105.36c-1.39,0-2.55-.44-3.49-1.32s-1.41-1.96-1.41-3.25.47-2.37,1.41-3.24c.94-.87,2.09-1.3,3.46-1.3s2.55.44,3.49,1.3c.94.87,1.41,1.95,1.41,3.24s-.47,2.37-1.41,3.25-2.09,1.32-3.46,1.32Zm-4.34,35.8v-31.76h8.7v31.76h-8.7Z" stroke-width="0"/><path d="m380.65,97.51v43.65h-8.7v-43.65h8.7Z" stroke-width="0"/><path d="m399.34,141.78c-2.6,0-4.9-.66-6.91-1.99s-3.59-3.22-4.73-5.68-1.71-5.4-1.71-8.82.58-6.35,1.74-8.8,2.75-4.33,4.76-5.64c2.01-1.31,4.29-1.96,6.83-1.96,1.56,0,2.93.24,4.12.72,1.18.48,2.19,1.12,3.03,1.93.84.81,1.52,1.71,2.05,2.71h.15v-16.73h8.7v43.65h-8.58v-4.98h-.21c-.51,1.07-1.19,2.03-2.04,2.87s-1.87,1.5-3.06,1.99-2.57.73-4.13.73Zm2.46-7.06c1.46,0,2.73-.39,3.81-1.17s1.9-1.88,2.49-3.3.88-3.07.88-4.97-.29-3.57-.88-4.97-1.41-2.49-2.48-3.27-2.34-1.17-3.82-1.17-2.69.39-3.74,1.16-1.85,1.86-2.4,3.25-.83,3.06-.83,5,.28,3.61.83,5.02,1.36,2.5,2.4,3.27,2.29,1.14,3.74,1.14Z" stroke-width="0"/><path d="m433.41,141.72c-2.07,0-3.92-.35-5.54-1.05s-2.9-1.76-3.82-3.16-1.39-3.15-1.39-5.24c0-1.8.33-3.29.98-4.48s1.55-2.15,2.7-2.87,2.45-1.27,3.91-1.66,3-.65,4.6-.81c1.89-.18,3.41-.35,4.54-.53s1.96-.43,2.48-.78.78-.85.78-1.54v-.18c0-.84-.2-1.56-.6-2.17s-.98-1.08-1.74-1.42-1.68-.51-2.75-.51-2.05.17-2.87.51-1.48.81-1.98,1.39-.83,1.26-.98,2.02l-8.09-.59c.31-2.03,1.07-3.78,2.29-5.24s2.81-2.59,4.8-3.37c1.99-.78,4.32-1.17,6.97-1.17,1.95,0,3.76.22,5.42.67,1.66.45,3.1,1.13,4.32,2.04s2.17,2.04,2.84,3.38,1.01,2.93,1.01,4.75v21.45h-8.41v-4.45h-.18c-.55,1.02-1.24,1.9-2.08,2.65s-1.85,1.33-3.03,1.74-2.57.62-4.17.62Zm2.43-6.06c1.39,0,2.59-.26,3.62-.79s1.82-1.24,2.39-2.14.85-1.91.85-3.05v-3.31c-.25.16-.62.3-1.08.44s-1,.27-1.58.4-1.2.24-1.83.34-1.25.2-1.86.29c-1.02.14-1.93.37-2.74.7s-1.45.78-1.92,1.35-.7,1.27-.7,2.11c0,.78.21,1.45.62,1.99s.98.96,1.71,1.25,1.58.42,2.53.42Z" stroke-width="0"/><path d="m462.33,105.36c-1.39,0-2.55-.44-3.49-1.32s-1.41-1.96-1.41-3.25.47-2.37,1.41-3.24c.94-.87,2.09-1.3,3.46-1.3s2.55.44,3.49,1.3c.94.87,1.41,1.95,1.41,3.24s-.47,2.37-1.41,3.25-2.09,1.32-3.46,1.32Zm-4.34,35.8v-31.76h8.7v31.76h-8.7Z" stroke-width="0"/><path d="m478.56,141.69c-1.41,0-2.59-.48-3.56-1.45s-1.45-2.14-1.45-3.53.48-2.59,1.45-3.56,2.15-1.45,3.56-1.45,2.59.48,3.56,1.45,1.45,2.15,1.45,3.56-.48,2.56-1.45,3.53-2.15,1.45-3.56,1.45Z" stroke-width="0"/><path d="m504.84,141.83c-3.18,0-5.96-.69-8.32-2.08s-4.19-3.32-5.49-5.79-1.95-5.34-1.95-8.6.65-6.16,1.95-8.64,3.13-4.41,5.49-5.8c2.36-1.39,5.14-2.08,8.32-2.08,1.99,0,3.83.28,5.51.83s3.15,1.35,4.42,2.37,2.3,2.25,3.09,3.68,1.29,3.02,1.51,4.78l-8.26.67c-.16-.82-.4-1.56-.73-2.21s-.76-1.22-1.29-1.7-1.14-.84-1.83-1.1-1.47-.38-2.33-.38c-1.48,0-2.75.4-3.81,1.19s-1.86,1.9-2.4,3.34-.82,3.11-.82,5.02.27,3.58.82,5.01,1.35,2.54,2.4,3.34,2.32,1.2,3.81,1.2c.86,0,1.64-.13,2.33-.38s1.3-.62,1.82-1.1.95-1.06,1.29-1.74.59-1.45.75-2.29l8.29.67c-.2,1.76-.68,3.35-1.46,4.79s-1.81,2.68-3.09,3.72-2.76,1.85-4.45,2.42-3.54.85-5.55.85Z" stroke-width="0"/><path d="m539.12,141.83c-3.18,0-5.97-.69-8.35-2.07s-4.23-3.3-5.54-5.77-1.96-5.35-1.96-8.63.65-6.19,1.96-8.67,3.15-4.41,5.54-5.79,5.17-2.07,8.35-2.07,6.02.69,8.38,2.07,4.2,3.31,5.51,5.79,1.96,5.37,1.96,8.67-.65,6.16-1.96,8.63-3.14,4.39-5.51,5.77-5.16,2.07-8.38,2.07Zm0-6.97c1.48,0,2.75-.4,3.79-1.19s1.85-1.9,2.42-3.33.85-3.1.85-5.01-.28-3.58-.85-5.01-1.37-2.53-2.42-3.33-2.31-1.19-3.79-1.19-2.72.4-3.78,1.19-1.86,1.89-2.42,3.31-.83,3.09-.83,5.02.28,3.58.83,5.01,1.36,2.53,2.42,3.33,2.31,1.19,3.78,1.19Z" stroke-width="0"/><path d="m560.36,141.16v-31.76h8.23l.21,7.5h-.59c.53-1.86,1.28-3.37,2.27-4.56s2.14-2.06,3.47-2.64c1.33-.58,2.71-.86,4.16-.86,2.36,0,4.35.71,5.96,2.12,1.61,1.42,2.67,3.47,3.18,6.17h-.97c.43-1.82,1.17-3.34,2.21-4.57s2.3-2.16,3.78-2.78c1.47-.62,3.05-.94,4.73-.94,1.99,0,3.77.43,5.33,1.29,1.56.86,2.8,2.12,3.71,3.78.91,1.66,1.36,3.67,1.36,6.04v21.21h-8.7v-19.57c0-1.86-.5-3.24-1.51-4.16s-2.24-1.38-3.71-1.38c-1.11,0-2.08.24-2.89.73s-1.44,1.17-1.88,2.04-.66,1.88-.66,3.03v19.31h-8.38v-19.83c0-1.6-.48-2.88-1.44-3.84s-2.19-1.44-3.69-1.44c-1.04,0-1.97.24-2.8.72s-1.49,1.18-1.98,2.09-.73,2.03-.73,3.34v18.96h-8.7Z" stroke-width="0"/><path d="m45.73,68.56c22.11-37.39,76.42-37.39,98.54,0,7.64,12.92,7.64,28.96,0,41.88-22.11,37.39-76.42,37.39-98.54,0-7.64-12.92-7.64-28.96,0-41.88Zm33.17,21.28c0-8.95,7.21-16.19,16.1-16.19s16.1,7.25,16.1,16.19-7.21,16.19-16.1,16.19-16.1-7.25-16.1-16.19Zm16.1-23.78c-13.06,0-23.64,10.64-23.64,23.78s10.58,23.77,23.64,23.77,23.65-10.64,23.65-23.77-10.59-23.78-23.65-23.78Z" fill-rule="evenodd" stroke-width="0"/></svg>