<?xml version="1.0" encoding="UTF-8"?><svg id="uuid-50b767a3-ac67-4887-9ea5-cea5d7caaf9f" xmlns="http://www.w3.org/2000/svg" viewBox="0 0 764 178"><path d="m26.98,2h710.04c13.84,0,24.98,11.6,24.98,26v122c0,14.4-11.15,26-24.98,26H26.98c-13.84,0-24.98-11.6-24.98-26V28C2,13.6,13.15,2,26.98,2Z" stroke="#000" stroke-width="4"/><g isolation="isolate"><path d="m213.5,71.21v7.26h-24.98v-7.26h24.98Zm-17.76-11.4h8.82v43.97c0,1.72.35,2.95,1.07,3.69.71.74,1.94,1.11,3.69,1.11.57,0,1.25-.03,2.03-.08s1.46-.11,2.03-.16l.7,7.22c-.82.14-1.76.23-2.81.29-1.05.05-2.06.08-3.01.08-4.13,0-7.25-.94-9.35-2.83-2.11-1.89-3.16-4.66-3.16-8.33v-44.95Z" fill="#fff" stroke-width="0"/><path d="m230.15,89.75v25.92h-8.82v-61.11h8.78v27.64h-1.72c1.37-3.99,3.32-6.94,5.87-8.84s5.6-2.85,9.19-2.85c3.04,0,5.74.65,8.1,1.95,2.36,1.3,4.22,3.22,5.56,5.76,1.34,2.54,2.01,5.71,2.01,9.52v27.93h-8.86v-26.87c0-3.39-.84-5.99-2.52-7.79s-4.03-2.71-7.03-2.71c-2,0-3.79.42-5.37,1.25-1.59.83-2.84,2.1-3.77,3.79-.93,1.7-1.39,3.83-1.39,6.4Z" fill="#fff" stroke-width="0"/><path d="m289.01,116.65c-4.4,0-8.18-.98-11.34-2.93s-5.59-4.66-7.3-8.12c-1.71-3.46-2.56-7.44-2.56-11.96s.86-8.55,2.58-12.04,4.14-6.22,7.24-8.2c3.1-1.98,6.69-2.97,10.77-2.97,2.87,0,5.54.49,8,1.48s4.61,2.45,6.46,4.39,3.29,4.33,4.33,7.16c1.04,2.83,1.56,6.09,1.56,9.78v2.75h-36.54v-6.64h31.95l-3.98,2.09c0-2.73-.47-5.13-1.39-7.18-.93-2.05-2.26-3.64-4-4.78-1.74-1.13-3.85-1.7-6.34-1.7s-4.54.57-6.32,1.7c-1.78,1.13-3.15,2.7-4.12,4.7-.97,2-1.46,4.28-1.46,6.85v4.1c0,2.9.51,5.41,1.52,7.55,1.01,2.13,2.46,3.77,4.35,4.92s4.12,1.72,6.69,1.72c1.8,0,3.42-.27,4.84-.8,1.42-.53,2.62-1.31,3.59-2.32.97-1.01,1.69-2.21,2.15-3.61l8.37.86c-.6,2.62-1.78,4.92-3.55,6.89s-3.97,3.51-6.62,4.63c-2.65,1.12-5.61,1.68-8.86,1.68Z" fill="#fff" stroke-width="0"/><path d="m325.63,115.67l-13.58-44.46h9.27l5,18.29c.79,2.93,1.59,6.04,2.38,9.35.79,3.31,1.59,6.77,2.38,10.38h-1.27c.79-3.55,1.6-6.99,2.42-10.29s1.64-6.45,2.46-9.43l5.04-18.29h8.57l4.96,18.29c.79,2.95,1.6,6.08,2.42,9.39s1.61,6.75,2.38,10.34h-1.27c.79-3.55,1.59-6.99,2.38-10.29.79-3.31,1.59-6.45,2.38-9.43l5.04-18.29h9.35l-13.62,44.46h-9.02l-5.58-19.24c-.55-1.94-1.08-3.93-1.6-5.97-.52-2.04-1.03-4.1-1.54-6.19-.51-2.09-1.03-4.16-1.58-6.21h1.93c-.52,2.02-1.04,4.09-1.56,6.19-.52,2.11-1.04,4.18-1.56,6.23-.52,2.05-1.07,4.03-1.64,5.95l-5.62,19.24h-8.94Z" fill="#fff" stroke-width="0"/><path d="m387.32,63.99c-1.53,0-2.84-.52-3.92-1.56-1.08-1.04-1.62-2.3-1.62-3.77s.54-2.77,1.62-3.79c1.08-1.03,2.39-1.54,3.92-1.54s2.88.51,3.96,1.54c1.08,1.03,1.62,2.29,1.62,3.79s-.54,2.73-1.62,3.77c-1.08,1.04-2.4,1.56-3.96,1.56Zm-4.39,51.68v-44.46h8.82v44.46h-8.82Z" fill="#fff" stroke-width="0"/><path d="m411.4,54.56v61.11h-8.82v-61.11h8.82Z" fill="#fff" stroke-width="0"/><path d="m439.04,116.53c-3.72,0-7.01-.94-9.86-2.83-2.86-1.89-5.09-4.56-6.69-8.02s-2.4-7.53-2.4-12.2.81-8.74,2.42-12.18,3.85-6.1,6.71-7.98c2.86-1.87,6.13-2.81,9.82-2.81,2.3,0,4.3.36,6.01,1.07,1.71.71,3.16,1.63,4.35,2.77s2.15,2.36,2.89,3.67h.25v-23.46h8.86v61.11h-8.65v-6.85h-.37c-.77,1.37-1.76,2.64-2.97,3.81-1.22,1.18-2.67,2.12-4.37,2.83s-3.69,1.07-5.99,1.07Zm1.89-7.55c2.49,0,4.63-.65,6.44-1.95s3.19-3.11,4.14-5.43,1.44-5.04,1.44-8.16-.48-5.79-1.44-8.1-2.33-4.11-4.12-5.39c-1.79-1.29-3.94-1.93-6.46-1.93s-4.58.64-6.36,1.91-3.14,3.06-4.08,5.35-1.42,5.02-1.42,8.16.47,5.92,1.42,8.24,2.3,4.12,4.08,5.39,3.9,1.91,6.36,1.91Z" fill="#fff" stroke-width="0"/><path d="m485.23,116.49c-2.9,0-5.5-.51-7.79-1.52s-4.12-2.52-5.46-4.53-2.01-4.48-2.01-7.4c0-2.54.49-4.62,1.46-6.23.97-1.61,2.28-2.9,3.94-3.86,1.65-.96,3.52-1.67,5.6-2.15s4.21-.84,6.4-1.09c2.71-.36,4.87-.64,6.5-.84,1.63-.21,2.81-.54,3.55-1s1.11-1.22,1.11-2.26v-.33c0-1.53-.34-2.86-1.03-4s-1.68-2.01-2.97-2.62c-1.3-.62-2.89-.92-4.78-.92s-3.58.3-4.98.9c-1.41.6-2.54,1.4-3.4,2.4s-1.43,2.11-1.7,3.34l-8.49-.98c.55-2.76,1.67-5.1,3.38-7.01,1.71-1.91,3.87-3.37,6.48-4.37,2.61-1,5.52-1.5,8.72-1.5,2.3,0,4.5.29,6.6.86s3.98,1.46,5.62,2.67,2.93,2.76,3.88,4.68,1.42,4.22,1.42,6.93v30.02h-8.61v-6.19h-.29c-.6,1.18-1.46,2.3-2.56,3.36s-2.52,1.94-4.25,2.62-3.83,1.03-6.32,1.03Zm1.85-7.05c2.52,0,4.62-.47,6.32-1.42s2.97-2.19,3.83-3.73,1.29-3.21,1.29-4.98v-5.41c-.3.27-.84.53-1.62.76s-1.7.44-2.75.64c-1.05.19-2.13.37-3.24.53s-2.14.31-3.1.45c-1.61.22-3.12.58-4.51,1.09s-2.51,1.22-3.34,2.15c-.83.93-1.25,2.15-1.25,3.65,0,1.34.36,2.47,1.07,3.4s1.69,1.64,2.93,2.13c1.24.49,2.7.74,4.37.74Z" fill="#fff" stroke-width="0"/><path d="m522.47,63.99c-1.53,0-2.84-.52-3.92-1.56-1.08-1.04-1.62-2.3-1.62-3.77s.54-2.77,1.62-3.79c1.08-1.03,2.39-1.54,3.92-1.54s2.88.51,3.96,1.54c1.08,1.03,1.62,2.29,1.62,3.79s-.54,2.73-1.62,3.77c-1.08,1.04-2.4,1.56-3.96,1.56Zm-4.39,51.68v-44.46h8.82v44.46h-8.82Z" fill="#fff" stroke-width="0"/><path d="m543.3,116.33c-1.64,0-3.04-.57-4.18-1.7s-1.72-2.52-1.72-4.16.57-3.03,1.72-4.16,2.54-1.7,4.18-1.7,3.03.57,4.16,1.7c1.13,1.13,1.7,2.52,1.7,4.16s-.57,3.03-1.7,4.16c-1.13,1.13-2.52,1.7-4.16,1.7Z" fill="#fff" stroke-width="0"/><path d="m578.58,116.65c-4.21,0-7.89-.97-11.03-2.91s-5.59-4.65-7.34-8.12-2.62-7.48-2.62-12.02.88-8.63,2.62-12.12,4.2-6.2,7.34-8.14,6.82-2.91,11.03-2.91c2.49,0,4.8.36,6.95,1.07,2.15.71,4.05,1.72,5.72,3.01s3.05,2.85,4.14,4.66,1.83,3.81,2.21,6.03l-8.57.94c-.25-1.2-.66-2.3-1.25-3.3-.59-1-1.32-1.86-2.19-2.58s-1.89-1.29-3.06-1.68c-1.16-.4-2.47-.59-3.92-.59-2.62,0-4.83.67-6.62,2.01-1.79,1.34-3.14,3.19-4.06,5.54-.92,2.35-1.37,5.04-1.37,8.08s.46,5.64,1.37,7.98c.92,2.34,2.27,4.18,4.06,5.52,1.79,1.34,4,2.01,6.62,2.01,1.45,0,2.75-.2,3.92-.59,1.16-.4,2.17-.96,3.04-1.7s1.58-1.62,2.17-2.65c.59-1.03,1.03-2.15,1.33-3.38l8.61.9c-.38,2.21-1.12,4.24-2.21,6.07s-2.48,3.41-4.16,4.74-3.6,2.35-5.76,3.08-4.48,1.09-6.97,1.09Z" fill="#fff" stroke-width="0"/><path d="m625.09,116.65c-4.21,0-7.9-.97-11.05-2.91s-5.61-4.64-7.36-8.1-2.62-7.47-2.62-12.04.88-8.63,2.62-12.12,4.2-6.2,7.36-8.14,6.84-2.91,11.05-2.91,7.9.97,11.05,2.91,5.61,4.66,7.36,8.14,2.62,7.53,2.62,12.12-.88,8.58-2.62,12.04-4.2,6.16-7.36,8.1-6.84,2.91-11.05,2.91Zm0-7.55c2.62,0,4.83-.67,6.62-2.01,1.79-1.34,3.15-3.18,4.08-5.52s1.39-5,1.39-7.98-.46-5.72-1.39-8.06-2.29-4.18-4.08-5.54c-1.79-1.35-4-2.03-6.62-2.03s-4.8.67-6.6,2.01-3.17,3.19-4.08,5.54c-.92,2.35-1.37,5.04-1.37,8.08s.46,5.64,1.37,7.98c.92,2.34,2.28,4.18,4.08,5.52s4.01,2.01,6.6,2.01Z" fill="#fff" stroke-width="0"/><path d="m654.83,115.67v-44.46h8.49l.08,9.84h-.74c.74-2.38,1.8-4.35,3.18-5.93,1.38-1.57,2.97-2.75,4.78-3.53s3.71-1.17,5.7-1.17c3.34,0,6.12.99,8.37,2.97s3.68,4.57,4.31,7.77h-1.27c.6-2.19,1.61-4.09,3.01-5.7,1.41-1.61,3.12-2.86,5.15-3.73s4.24-1.31,6.64-1.31c2.71,0,5.15.58,7.34,1.74s3.92,2.91,5.21,5.23,1.93,5.22,1.93,8.7v29.57h-8.82v-28.75c0-3.09-.86-5.33-2.58-6.71s-3.75-2.07-6.07-2.07c-1.91,0-3.56.4-4.94,1.21-1.38.81-2.45,1.92-3.2,3.34-.75,1.42-1.13,3.05-1.13,4.88v28.1h-8.7v-29.37c0-2.46-.79-4.44-2.38-5.93s-3.61-2.24-6.07-2.24c-1.67,0-3.23.39-4.68,1.17s-2.61,1.94-3.49,3.49-1.31,3.44-1.31,5.68v27.19h-8.82Z" fill="#fff" stroke-width="0"/></g><path d="m45.7,68.6c22.1-37.4,76.4-37.4,98.5,0,7.6,12.9,7.6,29,0,41.9-22.1,37.4-76.4,37.4-98.5,0-7.6-13-7.6-29,0-41.9Zm33.2,21.2c0-8.9,7.2-16.2,16.1-16.2s16.1,7.2,16.1,16.2-7.2,16.2-16.1,16.2-16.1-7.2-16.1-16.2Zm16.1-23.7c-13.1,0-23.6,10.6-23.6,23.8s10.6,23.8,23.6,23.8,23.6-10.6,23.6-23.8-10.5-23.8-23.6-23.8Z" fill="#fff" fill-rule="evenodd" stroke-width="0"/></svg>